<svg xmlns="http://www.w3.org/2000/svg" viewBox="0 0 700 978"><defs><style>.cls-1{fill:#fff;}</style></defs><g id="Capa_2" data-name="Capa 2"><g id="Capa_2-2" data-name="Capa 2"><path class="cls-1" d="M294,978H277c-5.6-1.17-9.82-4.64-14-8.22-36.45-31-71.55-63.36-104.38-98.18C122,832.74,88.16,791.63,60.19,746c-18.68-30.47-34.88-62.14-43.86-97-2.65-10.29-4.48-20.78-7.67-31C4,603,2,587.51,0,572V528a27.05,27.05,0,0,0,.61-2.92c3.39-34.64,12.74-67.7,26.82-99.41,32.26-72.62,80.3-133.61,138.57-187,3.22-2.95,6.66-7.27,11.59-5s4.41,7.8,4.62,12.39c.3,6.66-1.23,13.23-1,19.94.55,15.81.72,31.64,1.18,47.45q.87,29.72,2,59.43a12.89,12.89,0,0,0,10.77,12.63c6.72,1.18,12.37-1.72,15.11-7.9,1-2.13,1.62-4.37,2.38-6.58Q274.37,191.81,336,12.5C337.92,7,340.8,2.67,346,0h10q36.58,19.08,71.2,41.56c70.19,45.82,131.52,101,179.61,170.14,46.83,67.31,76.71,141.41,88.71,222.64,1.94,13.18,2.92,26.45,4.48,39.66v58c-1.79,20.09-5.76,39.83-9.71,59.57-8.66,43.29-18.25,86.35-32.9,128.1-5.8,16.53-12.3,32.77-22.12,47.42-4.37,6.52-11,8.48-17.9,5.82-6.66-2.57-10.2-8.9-9.29-16.46,2.53-21,3.85-42.13,4.41-63.25a882,882,0,0,0-3.6-108.78A903.86,903.86,0,0,0,589.15,464.8c-24.65-104.52-66.19-202-122-293.6q-13.67-22.39-28.58-44c-3.53-5.12-8.49-7-14.38-5.63-5.7,1.29-9.21,5.14-10.45,10.89-.81,3.8.89,7.23,2,10.68,56,180.89,106.9,363.25,158.23,545.49,3.81,13.52.69,19.26-12.71,23.91C514,728.89,465.63,739.36,415.77,742c-45.3,2.39-90.19-1.09-134.33-12.21a423.62,423.62,0,0,1-74.85-26.27c-3.54-1.64-7.09-2.84-11.08-1.66-9.07,2.67-12.54,11.92-7.7,20.88,9.42,17.44,19.1,34.74,28.3,52.3,29.29,56,55.33,113.49,82.3,170.57a59.2,59.2,0,0,1,4.51,12.69C305.1,968.33,302.77,973.41,294,978Zm54.55-863.81-1-.26c-.45,1.41-.93,2.8-1.33,4.21q-19.73,69.71-39.44,139.4l-113,400c-1.88,6.66-1.9,6.74,4.48,8.94A235.32,235.32,0,0,0,257.67,679c28.5,2.14,56.17-1.21,82.94-11.37,8-3,7.94-3.11,7.94-11.51V114.19Zm29.45-.55-1.13,0V654.38c0,9.15,0,9.15,8.67,12.52,19.79,7.71,40.45,11.11,61.54,11.62,26.9.65,53.05-4,78.47-12.73,7.71-2.66,7.69-2.64,5.48-10.49Q464.84,421,398.65,186.65,388.33,150.14,378,113.64ZM163.71,305.86l-1.42-.38c-3.44,5.85-7,11.63-10.31,17.56-27.4,49.6-45,101.66-39.59,159.39,1.69,18,5.87,35.45,13.83,51.83.57,1.17.87,2.92,2.32,3s1.83-1.7,2.45-2.8q23.23-41.4,46.47-82.8a15.15,15.15,0,0,0,2.13-9.54q-1.71-14.37-3.37-28.75-4.31-37.2-8.59-74.4C166.35,328,165,316.9,163.71,305.86Z"/></g></g></svg>